<svg width="66" height="62" viewBox="0 0 66 62" fill="none" xmlns="http://www.w3.org/2000/svg">
<g clip-path="url(#clip0_74_91)">
<path d="M66 0H52.7998V62H66V0Z" fill="#279546"/>
<path d="M52.8008 0H39.6006V62H52.8008V0Z" fill="#FCD504"/>
<path d="M39.6006 0H26.4004V62H39.6006V0Z" fill="#231F20"/>
<path d="M26.4004 0H13.2002V62H26.4004V0Z" fill="#E31E26"/>
<path d="M13.2002 0H0V62H13.2002V0Z" fill="#3C53A4"/>
<path d="M27.6453 48.2241C24.5523 46.2661 23.3253 43.1098 22.1144 39.9182C19.9271 34.8774 17.5418 29.8907 15.5835 24.7531C12.4001 17.6296 17.638 9.913 23.5713 18.3744C26.5521 23.7755 28.3427 29.5276 30.2492 35.4063C31.97 30.1737 34.0555 25.4812 36.2862 20.5103C37.0033 18.9908 38.2275 17.6473 39.4272 16.4202C41.5787 14.2191 45.3436 14.91 46.6224 17.3279C48.1472 19.8809 47.5101 22.9971 46.5263 25.5892C44.3456 30.6933 34.3354 51.2715 27.6462 48.2251L27.6453 48.2241Z" fill="white"/>
<path d="M42.9018 48.426C42.947 48.4596 42.9923 48.494 43.0375 48.5275C45.3511 48.575 47.0418 47.6142 47.7994 45.6413C48.0699 44.4355 48.5251 42.4347 47.0097 41.8453C42.62 39.5894 38.8919 46.3638 42.9027 48.426H42.9018Z" fill="white"/>
</g>
<defs>
<clipPath id="clip0_74_91">
<rect width="66" height="62" rx="31" fill="white"/>
</clipPath>
</defs>
</svg>
