<svg width="630" height="261" viewBox="0 0 630 261" fill="none" xmlns="http://www.w3.org/2000/svg">
    <g filter="url(#filter0_d_48_1072)">
        <path d="M231.183 200.291C202.557 181.205 212.974 141.939 210.183 112.785C211.034 88.5352 205.667 63.2928 212.34 39.6903C222.077 12.4302 274.564 24.2501 297.928 22.8552C349.781 27.5051 345.841 75.4324 315.44 105.611C360.123 162.444 288.477 219.38 231.183 200.291ZM260.602 86.9285C299.143 86.3472 291.55 60.3451 257.462 65.1611C249.583 66.4066 246.494 72.8583 248.882 83.8894C250.375 90.7024 256.716 86.8039 260.602 86.9285V86.9285ZM258.665 163.532C265.184 160.966 272.064 159.039 278.102 155.618C298.061 137.177 272.445 125.406 254.182 131.547C242.546 136.035 249.218 155.037 247.651 165.566C252.158 164.731 255.41 164.129 258.665 163.527V163.532Z" fill="white" />
        <path d="M501.545 133.685C443.385 91.2464 495.337 4.01899 559.436 13.8378C577.82 14.1824 596.671 40.4834 571.607 47.9399C545.221 55.5998 513.965 85.7204 546.361 107.949C555.853 116.974 567.805 123.227 575.402 134.374C585.748 154.934 584.347 183.634 564.039 197.638C548.318 208.545 530.483 208.752 512.655 206.494C495.42 203.496 463.041 199.78 470.373 174.903C481.864 158.807 499.008 169.095 513.211 172.379C525.063 175.032 534.584 164.703 530.4 153.954C523.984 143.417 511.448 140.1 501.55 133.677L501.545 133.685Z" fill="white" />
        <path d="M61.6701 206.386C48.9266 198.207 43.8674 185.029 38.8787 171.702C29.8674 150.653 20.0392 129.832 11.9693 108.376C-1.15148 78.6335 20.4332 46.4079 44.8875 81.7431C57.1707 104.295 64.548 128.313 72.4023 152.862C79.4894 131.011 88.0859 111.42 97.2796 90.6651C100.236 84.3213 105.279 78.7082 110.222 73.585C119.088 64.3931 134.602 67.2827 139.868 77.3755C146.151 88.0371 143.526 101.049 139.47 111.872C130.484 133.183 89.2346 219.115 61.6742 206.39L61.6701 206.386Z" fill="white" />
        <path d="M603.667 205.053C573.955 197.04 610.091 154.153 621.997 185.777C619.973 195.703 614.528 204.102 603.667 205.053Z" fill="white" />
        <path d="M189.478 85.6123C189.387 84.6533 189.3 83.6901 189.208 82.7269C185.692 79.2145 183.353 74.0249 178.874 71.7747C167.014 62.0306 152.628 73.1862 151.044 86.4011L151.206 86.7291C146.416 117.987 144.198 150.902 147.652 182.791C148.652 192.403 153.445 200.561 162.685 205.169C175.329 207.336 183.776 202.404 186.758 189.999C193.969 156.175 202.23 119.083 189.478 85.6123V85.6123ZM181.752 78.351C183.05 80.0615 184.415 81.6931 185.994 83.113C184.415 81.6931 183.05 80.0615 181.752 78.351Z" fill="white" />
        <path d="M157.526 60.013C157.858 60.2621 158.185 60.5153 158.517 60.7644C175.399 61.1132 187.728 54.0138 193.26 39.4205C195.234 30.5068 198.555 15.7143 187.496 11.3591C155.469 -5.32243 128.274 44.7638 157.53 60.0088L157.526 60.013Z" fill="white" />
        <path d="M459.293 168.792C457.667 163.241 453.031 160.318 448.307 157.566L448.303 157.562C432.412 154.141 413.457 160.393 399.751 149.632V149.615C397.284 148.204 394.883 141.532 396.911 136.521C401.178 129.754 409.069 130.43 415.547 131.863C438.454 138.132 448.249 120.923 441.813 100.401C435.116 77.9568 403.923 98.2877 395.335 83.0261C393.85 78.6668 395.596 75.0797 398.499 71.1729C405.818 62.7906 415.771 68.109 424.653 68.6736C443.489 70.9903 453.255 48.16 440.951 34.7417C421.369 24.2337 376.363 20.7048 356.528 31.3996C347.463 38.9598 351.477 52.8265 349.146 63.3636C349.188 85.0604 347.832 106.691 346.915 128.363C348.296 146.755 337.523 191.029 351.477 201.993C367.866 212.842 407.419 204.385 428.655 205.933C451.994 206.269 462.245 191.07 459.293 168.788V168.792Z" fill="white" />
    </g>
    <g filter="url(#filter1_d_48_1072)">
        <path d="M344.245 231.172H352.916C355.089 231.172 357.021 231.604 358.705 232.467C360.389 233.331 361.699 234.543 362.628 236.1C363.557 237.661 364.026 239.45 364.026 241.472C364.026 243.494 363.561 245.284 362.628 246.84C361.699 248.401 360.389 249.614 358.705 250.477C357.017 251.341 355.089 251.773 352.916 251.773H344.245V231.172ZM352.738 249.211C354.401 249.211 355.869 248.887 357.133 248.24C358.398 247.592 359.373 246.687 360.057 245.516C360.741 244.349 361.085 243 361.085 241.472C361.085 239.944 360.741 238.591 360.057 237.424C359.373 236.258 358.398 235.348 357.133 234.701C355.869 234.053 354.405 233.729 352.738 233.729H347.181V249.211H352.738Z" fill="white" />
        <path d="M376.018 231.172H378.959V251.773H376.018V231.172Z" fill="white" />
        <path d="M400.506 244.648V251.768H397.595V244.59L389.425 231.172H392.569L399.154 242.029L405.768 231.172H408.679L400.51 244.648H400.506Z" fill="white" />
        <path d="M436.057 251.287C434.618 250.805 433.486 250.182 432.661 249.418L433.748 247.123C434.531 247.828 435.535 248.405 436.762 248.846C437.986 249.286 439.246 249.506 440.54 249.506C442.245 249.506 443.518 249.215 444.36 248.638C445.201 248.057 445.624 247.289 445.624 246.33C445.624 245.624 445.392 245.047 444.932 244.607C444.471 244.167 443.903 243.826 443.227 243.594C442.551 243.357 441.598 243.091 440.362 242.801C438.815 242.427 437.563 242.053 436.613 241.684C435.663 241.31 434.851 240.737 434.175 239.961C433.499 239.189 433.159 238.142 433.159 236.826C433.159 235.726 433.449 234.738 434.025 233.854C434.602 232.969 435.481 232.264 436.655 231.736C437.832 231.205 439.292 230.943 441.034 230.943C442.249 230.943 443.443 231.101 444.621 231.413C445.799 231.728 446.806 232.176 447.648 232.766L446.678 235.12C445.815 234.572 444.894 234.153 443.916 233.87C442.937 233.588 441.975 233.443 441.034 233.443C439.371 233.443 438.118 233.746 437.285 234.356C436.451 234.962 436.037 235.747 436.037 236.71C436.037 237.416 436.273 237.989 436.742 238.433C437.21 238.877 437.795 239.218 438.492 239.463C439.188 239.708 440.134 239.969 441.328 240.243C442.875 240.617 444.119 240.991 445.06 241.36C446.002 241.734 446.81 242.302 447.486 243.066C448.162 243.834 448.502 244.86 448.502 246.155C448.502 247.235 448.208 248.219 447.619 249.111C447.03 250.004 446.139 250.71 444.944 251.229C443.75 251.748 442.278 252.009 440.536 252.009C438.985 252.009 437.492 251.768 436.053 251.287H436.057Z" fill="white" />
        <path d="M464.082 233.729H457.028V231.167H474.047V233.729H466.993V251.768H464.082V233.729Z" fill="white" />
        <path d="M486.48 249.651C484.954 248.082 484.186 245.827 484.186 242.884V231.172H487.127V242.768C487.127 247.181 489.055 249.39 492.916 249.39C494.798 249.39 496.237 248.846 497.237 247.758C498.236 246.67 498.738 245.005 498.738 242.768V231.172H501.587V242.884C501.587 245.848 500.824 248.107 499.294 249.668C497.763 251.229 495.628 252.009 492.887 252.009C490.146 252.009 488.01 251.225 486.48 249.655V249.651Z" fill="white" />
        <path d="M515.11 231.172H523.781C525.954 231.172 527.887 231.604 529.57 232.467C531.254 233.331 532.564 234.543 533.493 236.1C534.422 237.661 534.891 239.45 534.891 241.472C534.891 243.494 534.426 245.284 533.493 246.84C532.564 248.401 531.254 249.614 529.57 250.477C527.882 251.341 525.954 251.773 523.781 251.773H515.11V231.172ZM523.603 249.211C525.266 249.211 526.734 248.887 527.999 248.24C529.263 247.592 530.238 246.687 530.922 245.516C531.606 244.349 531.951 243 531.951 241.472C531.951 239.944 531.606 238.591 530.922 237.424C530.238 236.258 529.263 235.348 527.999 234.701C526.734 234.053 525.27 233.729 523.603 233.729H518.046V249.211H523.603Z" fill="white" />
        <path d="M546.888 231.172H549.828V251.773H546.888V231.172Z" fill="white" />
        <path d="M567.17 250.639C565.503 249.726 564.197 248.468 563.247 246.857C562.298 245.246 561.821 243.452 561.821 241.472C561.821 239.492 562.294 237.694 563.247 236.087C564.197 234.481 565.507 233.218 567.17 232.305C568.833 231.392 570.708 230.935 572.785 230.935C574.863 230.935 576.704 231.392 578.371 232.305C580.038 233.218 581.34 234.472 582.282 236.071C583.223 237.669 583.692 239.471 583.692 241.472C583.692 243.473 583.223 245.275 582.282 246.873C581.34 248.472 580.038 249.73 578.371 250.639C576.704 251.552 574.842 252.009 572.785 252.009C570.728 252.009 568.837 251.552 567.17 250.639ZM576.853 248.36C578.06 247.675 579.01 246.728 579.706 245.52C580.399 244.316 580.751 242.967 580.751 241.476C580.751 239.986 580.403 238.636 579.706 237.428C579.01 236.22 578.06 235.274 576.853 234.589C575.651 233.899 574.291 233.559 572.781 233.559C571.272 233.559 569.903 233.904 568.68 234.589C567.452 235.274 566.494 236.22 565.798 237.428C565.101 238.632 564.753 239.986 564.753 241.476C564.753 242.967 565.101 244.316 565.798 245.52C566.49 246.728 567.452 247.675 568.68 248.36C569.903 249.045 571.272 249.389 572.781 249.389C574.291 249.389 575.647 249.045 576.853 248.36Z" fill="white" />
    </g>
    <defs>
        <filter id="filter0_d_48_1072" x="-0.000137329" y="0" width="629.997" height="215.668" filterUnits="userSpaceOnUse" color-interpolation-filters="sRGB">
            <feFlood flood-opacity="0" result="BackgroundImageFix" />
            <feColorMatrix in="SourceAlpha" type="matrix" values="0 0 0 0 0 0 0 0 0 0 0 0 0 0 0 0 0 0 127 0" result="hardAlpha" />
            <feOffset />
            <feGaussianBlur stdDeviation="4" />
            <feComposite in2="hardAlpha" operator="out" />
            <feColorMatrix type="matrix" values="0 0 0 0 0 0 0 0 0 0 0 0 0 0 0 0 0 0 0.5 0" />
            <feBlend mode="normal" in2="BackgroundImageFix" result="effect1_dropShadow_48_1072" />
            <feBlend mode="normal" in="SourceGraphic" in2="effect1_dropShadow_48_1072" result="shape" />
        </filter>
        <filter id="filter1_d_48_1072" x="336.245" y="222.935" width="255.447" height="37.0742" filterUnits="userSpaceOnUse" color-interpolation-filters="sRGB">
            <feFlood flood-opacity="0" result="BackgroundImageFix" />
            <feColorMatrix in="SourceAlpha" type="matrix" values="0 0 0 0 0 0 0 0 0 0 0 0 0 0 0 0 0 0 127 0" result="hardAlpha" />
            <feOffset />
            <feGaussianBlur stdDeviation="4" />
            <feComposite in2="hardAlpha" operator="out" />
            <feColorMatrix type="matrix" values="0 0 0 0 0 0 0 0 0 0 0 0 0 0 0 0 0 0 0.5 0" />
            <feBlend mode="normal" in2="BackgroundImageFix" result="effect1_dropShadow_48_1072" />
            <feBlend mode="normal" in="SourceGraphic" in2="effect1_dropShadow_48_1072" result="shape" />
        </filter>
    </defs>
</svg>