<svg width="614" height="245" viewBox="0 0 614 245" fill="none" xmlns="http://www.w3.org/2000/svg">
	<path d="M223.183 192.291C194.557 173.205 204.974 133.939 202.183 104.785C203.034 80.5352 197.667 55.2928 204.34 31.6903C214.077 4.43022 266.564 16.2501 289.928 14.8552C341.781 19.5051 337.841 67.4324 307.44 97.6111C352.123 154.444 280.477 211.38 223.183 192.291ZM252.602 78.9285C291.143 78.3472 283.55 52.3451 249.462 57.1611C241.583 58.4066 238.494 64.8583 240.882 75.8894C242.375 82.7024 248.716 78.8039 252.602 78.9285ZM250.665 155.532C257.184 152.966 264.064 151.039 270.102 147.618C290.061 129.177 264.445 117.406 246.182 123.547C234.546 128.035 241.218 147.037 239.651 157.566C244.158 156.731 247.41 156.129 250.665 155.527V155.532Z" fill="white" />
	<path d="M493.545 125.685C435.385 83.2464 487.337 -3.98101 551.436 5.83778C569.82 6.18237 588.671 32.4834 563.607 39.9399C537.221 47.5998 505.965 77.7204 538.361 99.9487C547.853 108.974 559.805 115.227 567.402 126.374C577.748 146.934 576.347 175.634 556.039 189.638C540.318 200.545 522.483 200.752 504.655 198.494C487.42 195.496 455.041 191.78 462.373 166.903C473.864 150.807 491.008 161.095 505.211 164.379C517.063 167.032 526.584 156.703 522.4 145.954C515.984 135.417 503.448 132.1 493.55 125.677L493.545 125.685Z" fill="white" />
	<path d="M53.6701 198.386C40.9266 190.207 35.8674 177.029 30.8787 163.702C21.8674 142.653 12.0392 121.832 3.96935 100.376C-9.15148 70.6335 12.4332 38.4079 36.8875 73.7431C49.1707 96.2952 56.548 120.313 64.4023 144.862C71.4894 123.011 80.0859 103.42 89.2796 82.6651C92.2364 76.3213 97.279 70.7082 102.222 65.585C111.088 56.3931 126.602 59.2827 131.868 69.3755C138.151 80.0371 135.526 93.0486 131.47 103.872C122.484 125.183 81.2346 211.115 53.6742 198.39L53.6701 198.386Z" fill="white" />
	<path d="M595.667 197.053C565.955 189.04 602.091 146.153 613.997 177.777C611.973 187.703 606.528 196.102 595.667 197.053Z" fill="white" />
	<path d="M181.478 77.6123C181.387 76.6533 181.3 75.6901 181.208 74.7269C177.692 71.2145 175.353 66.0249 170.874 63.7747C159.014 54.0306 144.628 65.1862 143.044 78.4011L143.206 78.7291C138.416 109.987 136.198 142.902 139.652 174.791C140.652 184.403 145.445 192.561 154.685 197.169C167.329 199.336 175.776 194.404 178.758 181.999C185.969 148.175 194.23 111.083 181.478 77.6123ZM173.752 70.351C175.05 72.0615 176.415 73.6931 177.994 75.113C176.415 73.6931 175.05 72.0615 173.752 70.351Z" fill="white" />
	<path d="M149.526 52.013C149.858 52.2621 150.185 52.5153 150.517 52.7645C167.399 53.1132 179.728 46.0138 185.26 31.4205C187.234 22.5068 190.555 7.71427 179.496 3.35913C147.469 -13.3224 120.274 36.7638 149.53 52.0088L149.526 52.013Z" fill="white" />
	<path d="M451.293 160.792C449.667 155.241 445.031 152.318 440.307 149.566L440.303 149.562C424.412 146.141 405.457 152.393 391.751 141.632V141.615C389.284 140.204 386.883 133.532 388.911 128.521C393.178 121.754 401.069 122.43 407.547 123.863C430.454 130.132 440.249 112.923 433.813 92.401C427.116 69.9568 395.923 90.2877 387.335 75.0261C385.85 70.6668 387.596 67.0797 390.499 63.1729C397.818 54.7906 407.771 60.109 416.653 60.6736C435.489 62.9903 445.255 40.16 432.951 26.7417C413.369 16.2337 368.363 12.7048 348.528 23.3996C339.463 30.9598 343.477 44.8265 341.146 55.3636C341.188 77.0604 339.832 98.6908 338.915 120.363C340.296 138.755 329.523 183.029 343.477 193.993C359.866 204.842 399.419 196.385 420.655 197.933C443.994 198.27 454.245 183.07 451.293 160.788V160.792Z" fill="white" />
	<path d="M336.245 223.172H344.916C347.089 223.172 349.021 223.604 350.705 224.467C352.389 225.331 353.699 226.543 354.628 228.1C355.557 229.661 356.026 231.45 356.026 233.472C356.026 235.494 355.561 237.284 354.628 238.84C353.699 240.401 352.389 241.614 350.705 242.477C349.017 243.341 347.089 243.773 344.916 243.773H336.245V223.172ZM344.738 241.211C346.401 241.211 347.869 240.887 349.133 240.24C350.398 239.592 351.373 238.687 352.057 237.516C352.741 236.349 353.085 235 353.085 233.472C353.085 231.944 352.741 230.591 352.057 229.424C351.373 228.258 350.398 227.348 349.133 226.701C347.869 226.053 346.405 225.729 344.738 225.729H339.181V241.211H344.738Z" fill="white" />
	<path d="M368.018 223.172H370.959V243.773H368.018V223.172Z" fill="white" />
	<path d="M392.506 236.648V243.768H389.595V236.59L381.425 223.172H384.569L391.154 234.029L397.768 223.172H400.679L392.51 236.648H392.506Z" fill="white" />
	<path d="M428.057 243.287C426.618 242.805 425.486 242.182 424.661 241.418L425.748 239.123C426.531 239.828 427.535 240.405 428.762 240.846C429.986 241.286 431.246 241.506 432.54 241.506C434.245 241.506 435.518 241.215 436.36 240.638C437.201 240.057 437.624 239.289 437.624 238.33C437.624 237.624 437.392 237.047 436.932 236.607C436.471 236.167 435.903 235.826 435.227 235.594C434.551 235.357 433.598 235.091 432.362 234.801C430.815 234.427 429.563 234.053 428.613 233.684C427.663 233.31 426.851 232.737 426.175 231.961C425.499 231.189 425.159 230.142 425.159 228.826C425.159 227.726 425.449 226.738 426.025 225.854C426.602 224.969 427.481 224.264 428.655 223.736C429.832 223.205 431.292 222.943 433.034 222.943C434.249 222.943 435.443 223.101 436.621 223.413C437.799 223.728 438.806 224.176 439.648 224.766L438.678 227.12C437.815 226.572 436.894 226.153 435.916 225.87C434.937 225.588 433.975 225.443 433.034 225.443C431.371 225.443 430.118 225.746 429.285 226.356C428.451 226.962 428.037 227.747 428.037 228.71C428.037 229.416 428.273 229.989 428.742 230.433C429.21 230.877 429.795 231.218 430.492 231.463C431.188 231.708 432.134 231.969 433.328 232.243C434.875 232.617 436.119 232.991 437.06 233.36C438.002 233.734 438.81 234.302 439.486 235.066C440.162 235.834 440.502 236.86 440.502 238.155C440.502 239.235 440.208 240.219 439.619 241.111C439.03 242.004 438.139 242.71 436.944 243.229C435.75 243.748 434.278 244.009 432.536 244.009C430.985 244.009 429.492 243.768 428.053 243.287H428.057Z" fill="white" />
	<path d="M456.082 225.729H449.028V223.167H466.047V225.729H458.993V243.768H456.082V225.729Z" fill="white" />
	<path d="M478.48 241.651C476.954 240.082 476.186 237.827 476.186 234.884V223.172H479.127V234.768C479.127 239.181 481.055 241.39 484.916 241.39C486.798 241.39 488.237 240.846 489.237 239.758C490.236 238.67 490.738 237.005 490.738 234.768V223.172H493.587V234.884C493.587 237.848 492.824 240.107 491.294 241.668C489.763 243.229 487.628 244.009 484.887 244.009C482.146 244.009 480.01 243.225 478.48 241.655V241.651Z" fill="white" />
	<path d="M507.11 223.172H515.781C517.954 223.172 519.887 223.604 521.57 224.467C523.254 225.331 524.564 226.543 525.493 228.1C526.422 229.661 526.891 231.45 526.891 233.472C526.891 235.494 526.426 237.284 525.493 238.84C524.564 240.401 523.254 241.614 521.57 242.477C519.882 243.341 517.954 243.773 515.781 243.773H507.11V223.172ZM515.603 241.211C517.266 241.211 518.734 240.887 519.999 240.24C521.263 239.592 522.238 238.687 522.922 237.516C523.606 236.349 523.951 235 523.951 233.472C523.951 231.944 523.606 230.591 522.922 229.424C522.238 228.258 521.263 227.348 519.999 226.701C518.734 226.053 517.27 225.729 515.603 225.729H510.046V241.211H515.603Z" fill="white" />
	<path d="M538.888 223.172H541.828V243.773H538.888V223.172Z" fill="white" />
	<path d="M559.17 242.639C557.503 241.726 556.197 240.468 555.247 238.857C554.298 237.246 553.821 235.452 553.821 233.472C553.821 231.492 554.294 229.694 555.247 228.087C556.197 226.481 557.507 225.218 559.17 224.305C560.833 223.392 562.708 222.935 564.785 222.935C566.863 222.935 568.704 223.392 570.371 224.305C572.038 225.218 573.34 226.472 574.282 228.071C575.223 229.669 575.692 231.471 575.692 233.472C575.692 235.473 575.223 237.275 574.282 238.873C573.34 240.472 572.038 241.73 570.371 242.639C568.704 243.552 566.842 244.009 564.785 244.009C562.728 244.009 560.837 243.552 559.17 242.639ZM568.853 240.36C570.06 239.675 571.01 238.728 571.706 237.52C572.399 236.316 572.751 234.967 572.751 233.476C572.751 231.986 572.403 230.636 571.706 229.428C571.01 228.22 570.06 227.274 568.853 226.589C567.651 225.899 566.291 225.559 564.781 225.559C563.272 225.559 561.903 225.904 560.68 226.589C559.452 227.274 558.494 228.22 557.798 229.428C557.101 230.632 556.753 231.986 556.753 233.476C556.753 234.967 557.101 236.316 557.798 237.52C558.49 238.728 559.452 239.675 560.68 240.36C561.903 241.045 563.272 241.389 564.781 241.389C566.291 241.389 567.647 241.045 568.853 240.36Z" fill="white" />
</svg>