<svg width="264" height="40" viewBox="0 0 264 40" fill="none" xmlns="http://www.w3.org/2000/svg">
<path d="M18.606 2.01806L13.5182 12.1493L2.13489 13.7792C0.0935342 14.07 -0.724566 16.5416 0.755805 17.9572L8.99134 25.8388L7.04348 36.9724C6.69287 38.9849 8.8511 40.4924 10.6587 39.5512L20.8421 34.2942L31.0255 39.5512C32.8331 40.4847 34.9913 38.9849 34.6407 36.9724L32.6929 25.8388L40.9284 17.9572C42.4088 16.5416 41.5907 14.07 39.5493 13.7792L28.166 12.1493L23.0782 2.01806C22.1666 0.212183 19.5253 0.189227 18.606 2.01806Z" fill="#FCD504"/>
<path d="M74.1851 2.01806L69.0973 12.1493L57.714 13.7792C55.6726 14.07 54.8545 16.5416 56.3349 17.9572L64.5704 25.8388L62.6226 36.9724C62.272 38.9849 64.4302 40.4924 66.2378 39.5512L76.4212 34.2942L86.6046 39.5512C88.4122 40.4847 90.5704 38.9849 90.2198 36.9724L88.272 25.8388L96.5075 17.9572C97.9879 16.5416 97.1698 14.07 95.1284 13.7792L83.7451 12.1493L78.6573 2.01806C77.7457 0.212183 75.1044 0.189227 74.1851 2.01806Z" fill="#FCD504"/>
<path d="M129.764 2.01806L124.676 12.1493L113.293 13.7792C111.251 14.07 110.433 16.5416 111.914 17.9572L120.149 25.8388L118.201 36.9724C117.851 38.9849 120.009 40.4924 121.816 39.5512L132 34.2942L142.183 39.5512C143.991 40.4847 146.149 38.9849 145.798 36.9724L143.851 25.8388L152.086 17.9572C153.566 16.5416 152.748 14.07 150.707 13.7792L139.324 12.1493L134.236 2.01806C133.324 0.212183 130.683 0.189227 129.764 2.01806Z" fill="#FCD504"/>
<path d="M185.343 2.01806L180.255 12.1493L168.872 13.7792C166.83 14.07 166.012 16.5416 167.493 17.9572L175.728 25.8388L173.78 36.9724C173.43 38.9849 175.588 40.4924 177.396 39.5512L187.579 34.2942L197.762 39.5512C199.57 40.4847 201.728 38.9849 201.378 36.9724L199.43 25.8388L207.665 17.9572C209.146 16.5416 208.327 14.07 206.286 13.7792L194.903 12.1493L189.815 2.01806C188.903 0.212183 186.262 0.189227 185.343 2.01806Z" fill="#FCD504"/>
<path d="M240.922 2.01806L235.834 12.1493L224.451 13.7792C222.409 14.07 221.591 16.5416 223.071 17.9572L231.307 25.8388L229.359 36.9724C229.009 38.9849 231.167 40.4924 232.974 39.5512L243.158 34.2942L253.341 39.5512C255.149 40.4847 257.307 38.9849 256.956 36.9724L255.009 25.8388L263.244 17.9572C264.724 16.5416 263.906 14.07 261.865 13.7792L250.482 12.1493L245.394 2.01806C244.482 0.212183 241.841 0.189227 240.922 2.01806Z" fill="#FCD504"/>
</svg>
