<svg width="157" height="63" viewBox="0 0 157 63" fill="none" xmlns="http://www.w3.org/2000/svg">
<path d="M57.2411 48.944C49.9802 44.1178 52.6224 34.1881 51.9145 26.8159C52.1301 20.6835 50.769 14.3003 52.4615 8.33178C54.9312 1.43831 68.2444 4.4273 74.1706 4.07454C87.3229 5.2504 86.3236 17.3701 78.6125 25.0017C89.9462 39.3734 71.7734 53.7714 57.2411 48.944ZM64.7029 20.2772C74.4788 20.1303 72.5528 13.5549 63.9066 14.7728C61.9081 15.0877 61.1245 16.7192 61.7304 19.5087C62.109 21.2316 63.7173 20.2457 64.7029 20.2772ZM64.2117 39.6485C65.8652 38.9996 67.6102 38.5125 69.1417 37.6474C74.2042 32.9839 67.7069 30.0075 63.0746 31.5602C60.1231 32.6951 61.8155 37.5004 61.4179 40.1629C62.5613 39.9519 63.386 39.7996 64.2117 39.6474V39.6485Z" fill="white"/>
<path d="M125.817 32.1009C111.065 21.3691 124.243 -0.688726 140.501 1.79423C145.164 1.88136 149.946 8.53232 143.588 10.4179C136.895 12.3549 128.968 19.9717 137.185 25.5928C139.592 27.8752 142.624 29.4563 144.551 32.2752C147.175 37.4742 146.82 44.732 141.669 48.2732C137.681 51.0312 133.157 51.0837 128.635 50.5126C124.264 49.7546 116.051 48.8149 117.911 42.5241C120.825 38.4537 125.174 41.0553 128.776 41.8858C131.782 42.5566 134.197 39.9445 133.136 37.2264C131.509 34.5618 128.329 33.723 125.818 32.0988L125.817 32.1009Z" fill="#279546"/>
<path d="M14.2446 50.4853C11.0123 48.417 9.72901 45.0847 8.46364 41.7146C6.17797 36.3918 3.68509 31.1266 1.63819 25.7009C-1.68985 18.1796 3.78501 10.0305 9.98776 18.966C13.1033 24.6689 14.9746 30.7424 16.9668 36.9503C18.7644 31.4248 20.9449 26.4705 23.2768 21.2221C24.0268 19.6179 25.3058 18.1985 26.5596 16.903C28.8085 14.5785 32.7434 15.3092 34.0793 17.8615C35.6728 20.5576 35.007 23.8479 33.9783 26.5849C31.699 31.9739 21.2362 53.7042 14.2456 50.4863L14.2446 50.4853Z" fill="#3C53A4"/>
<path d="M151.72 50.1483C144.184 48.122 153.35 37.2768 156.369 45.2737C155.856 47.7839 154.475 49.9078 151.72 50.1483Z" fill="white"/>
<path d="M46.6626 19.9444C46.6394 19.7019 46.6173 19.4583 46.5942 19.2148C45.7022 18.3266 45.109 17.0142 43.973 16.4452C40.9647 13.9811 37.3158 16.8022 36.914 20.1439L36.9551 20.2268C35.7402 28.1313 35.1774 36.4547 36.0536 44.5188C36.3071 46.9493 37.5231 49.0123 39.8666 50.1776C43.0737 50.7257 45.2163 49.4784 45.9726 46.3414C47.8017 37.7881 49.897 28.4085 46.6626 19.9444ZM44.703 18.1082C45.0322 18.5408 45.3783 18.9534 45.779 19.3124C45.3783 18.9534 45.0322 18.5408 44.703 18.1082Z" fill="#E31E26"/>
<path d="M38.5582 13.4709C38.6423 13.5339 38.7254 13.5979 38.8096 13.6609C43.0916 13.7491 46.2188 11.9538 47.6219 8.26354C48.1226 6.00946 48.9652 2.26876 46.1599 1.16744C38.0365 -3.05095 31.1384 9.61473 38.5592 13.4699L38.5582 13.4709Z" fill="#E31E26"/>
<path d="M115.1 40.9787C114.688 39.575 113.512 38.8359 112.314 38.1398L112.313 38.1388C108.282 37.2737 103.474 38.8548 99.9976 36.1335V36.1293C99.3717 35.7723 98.7627 34.0852 99.2771 32.818C100.359 31.1067 102.361 31.2778 104.004 31.64C109.814 33.2253 112.299 28.8736 110.666 23.6841C108.968 18.0085 101.056 23.1497 98.8774 19.2904C98.5008 18.188 98.9436 17.2809 99.6799 16.293C101.536 14.1733 104.061 15.5182 106.314 15.661C111.091 16.2468 113.569 10.4735 110.448 7.08034C105.481 4.42311 94.0652 3.53072 89.0342 6.23519C86.7348 8.14701 87.753 11.6536 87.1619 14.3182C87.1724 19.8048 86.8285 25.2747 86.596 30.755C86.9463 35.4059 84.2136 46.6018 87.753 49.3745C91.9099 52.1178 101.942 49.9792 107.329 50.3708C113.249 50.4559 115.849 46.6123 115.1 40.9776V40.9787Z" fill="#FCD504"/>
<path d="M85.9187 56.753H88.1181C88.6693 56.753 89.1594 56.8622 89.5865 57.0806C90.0135 57.299 90.3459 57.6055 90.5815 57.9992C90.8172 58.394 90.936 58.8465 90.936 59.3578C90.936 59.869 90.8182 60.3215 90.5815 60.7152C90.3459 61.11 90.0135 61.4166 89.5865 61.6349C89.1584 61.8533 88.6693 61.9625 88.1181 61.9625H85.9187V56.753ZM88.0729 61.3147C88.4947 61.3147 88.867 61.2328 89.1878 61.0691C89.5087 60.9053 89.7558 60.6764 89.9294 60.3803C90.1029 60.0853 90.1903 59.7441 90.1903 59.3578C90.1903 58.9714 90.1029 58.6291 89.9294 58.3341C89.7558 58.0391 89.5087 57.8092 89.1878 57.6454C88.867 57.4816 88.4957 57.3997 88.0729 57.3997H86.6634V61.3147H88.0729Z" fill="white"/>
<path d="M93.978 56.753H94.7238V61.9625H93.978V56.753Z" fill="white"/>
<path d="M100.189 60.1609V61.9614H99.4508V60.1462L97.3787 56.753H98.176L99.8463 59.4984L101.524 56.753H102.262L100.19 60.1609H100.189Z" fill="white"/>
<path d="M109.207 61.8397C108.842 61.7179 108.555 61.5604 108.345 61.3672L108.621 60.7866C108.82 60.9651 109.074 61.1111 109.385 61.2223C109.696 61.3336 110.016 61.3893 110.344 61.3893C110.776 61.3893 111.099 61.3158 111.312 61.1698C111.526 61.0229 111.633 60.8286 111.633 60.5861C111.633 60.4076 111.574 60.2617 111.458 60.1504C111.341 60.0391 111.197 59.953 111.025 59.8943C110.854 59.8344 110.612 59.7672 110.298 59.6937C109.906 59.5992 109.588 59.5047 109.348 59.4113C109.107 59.3168 108.901 59.1719 108.729 58.9756C108.558 58.7803 108.471 58.5158 108.471 58.183C108.471 57.9047 108.545 57.6549 108.691 57.4312C108.837 57.2076 109.06 57.0291 109.358 56.8958C109.657 56.7614 110.027 56.6953 110.469 56.6953C110.777 56.6953 111.08 56.7352 111.379 56.8139C111.677 56.8937 111.933 57.0071 112.147 57.1562L111.9 57.7515C111.682 57.6129 111.448 57.5068 111.2 57.4354C110.952 57.3641 110.708 57.3273 110.469 57.3273C110.047 57.3273 109.729 57.404 109.518 57.5583C109.307 57.7116 109.201 57.91 109.201 58.1536C109.201 58.332 109.261 58.4769 109.38 58.5893C109.499 58.7016 109.647 58.7877 109.824 58.8496C110.001 58.9116 110.241 58.9777 110.544 59.047C110.936 59.1415 111.251 59.236 111.49 59.3294C111.729 59.4239 111.934 59.5677 112.106 59.7609C112.277 59.9551 112.363 60.2145 112.363 60.542C112.363 60.815 112.289 61.0638 112.139 61.2895C111.99 61.5153 111.764 61.6937 111.461 61.825C111.158 61.9562 110.784 62.0223 110.343 62.0223C109.949 62.0223 109.571 61.9614 109.206 61.8397H109.207Z" fill="white"/>
<path d="M116.315 57.3998H114.526V56.752H118.843V57.3998H117.053V61.9615H116.315V57.3998Z" fill="white"/>
<path d="M121.996 61.426C121.609 61.0292 121.414 60.4591 121.414 59.7147V56.753H122.16V59.6853C122.16 60.8013 122.649 61.3599 123.628 61.3599C124.106 61.3599 124.471 61.2223 124.724 60.9473C124.978 60.6722 125.105 60.2512 125.105 59.6853V56.753H125.828V59.7147C125.828 60.4643 125.634 61.0355 125.246 61.4302C124.858 61.825 124.316 62.0223 123.621 62.0223C122.926 62.0223 122.384 61.8239 121.996 61.4271V61.426Z" fill="white"/>
<path d="M129.258 56.753H131.457C132.009 56.753 132.499 56.8622 132.926 57.0806C133.353 57.299 133.685 57.6055 133.921 57.9992C134.157 58.394 134.275 58.8465 134.275 59.3578C134.275 59.869 134.158 60.3215 133.921 60.7152C133.685 61.11 133.353 61.4166 132.926 61.6349C132.498 61.8533 132.009 61.9625 131.457 61.9625H129.258V56.753ZM131.412 61.3147C131.834 61.3147 132.206 61.2328 132.527 61.0691C132.848 60.9053 133.095 60.6764 133.269 60.3803C133.442 60.0853 133.53 59.7441 133.53 59.3578C133.53 58.9714 133.442 58.6291 133.269 58.3341C133.095 58.0391 132.848 57.8092 132.527 57.6454C132.206 57.4816 131.835 57.3997 131.412 57.3997H130.003V61.3147H131.412Z" fill="white"/>
<path d="M137.318 56.753H138.064V61.9625H137.318V56.753Z" fill="white"/>
<path d="M142.463 61.6759C142.04 61.4449 141.709 61.1268 141.468 60.7194C141.227 60.3121 141.106 59.8585 141.106 59.3578C141.106 58.857 141.226 58.4024 141.468 57.9961C141.709 57.5898 142.041 57.2706 142.463 57.0396C142.885 56.8087 143.36 56.6932 143.887 56.6932C144.414 56.6932 144.881 56.8087 145.304 57.0396C145.727 57.2706 146.057 57.5877 146.296 57.9919C146.535 58.3961 146.653 58.8517 146.653 59.3578C146.653 59.8638 146.535 60.3194 146.296 60.7236C146.057 61.1278 145.727 61.446 145.304 61.6759C144.881 61.9068 144.409 62.0223 143.887 62.0223C143.365 62.0223 142.886 61.9068 142.463 61.6759ZM144.919 61.0995C145.225 60.9263 145.466 60.6869 145.643 60.3814C145.818 60.0769 145.908 59.7357 145.908 59.3588C145.908 58.9819 145.819 58.6407 145.643 58.3352C145.466 58.0297 145.225 57.7903 144.919 57.6171C144.614 57.4428 144.269 57.3567 143.886 57.3567C143.503 57.3567 143.156 57.4438 142.846 57.6171C142.534 57.7903 142.291 58.0297 142.115 58.3352C141.938 58.6396 141.85 58.9819 141.85 59.3588C141.85 59.7357 141.938 60.0769 142.115 60.3814C142.29 60.6869 142.534 60.9263 142.846 61.0995C143.156 61.2727 143.503 61.3599 143.886 61.3599C144.269 61.3599 144.613 61.2727 144.919 61.0995Z" fill="white"/>
</svg>
