<svg width="157" height="63" viewBox="0 0 157 63" fill="none" xmlns="http://www.w3.org/2000/svg">
<path d="M57.2411 49.2632C49.9802 44.4369 52.6224 34.5072 51.9145 27.135C52.1301 21.0027 50.769 14.6195 52.4615 8.65093C54.9312 1.75746 68.2444 4.74645 74.1706 4.3937C87.3229 5.56955 86.3236 17.6893 78.6125 25.3208C89.9462 39.6926 71.7734 54.0905 57.2411 49.2632ZM64.7029 20.5964C74.4788 20.4494 72.5528 13.8741 63.9066 15.0919C61.9081 15.4069 61.1245 17.0384 61.7304 19.8279C62.109 21.5507 63.7173 20.5649 64.7029 20.5964ZM64.2117 39.9676C65.8652 39.3188 67.6102 38.8316 69.1417 37.9666C74.2042 33.303 67.7069 30.3266 63.0746 31.8794C60.1231 33.0143 61.8155 37.8196 61.4179 40.4821C62.5613 40.271 63.386 40.1188 64.2117 39.9666V39.9676Z" fill="#010101"/>
<path d="M125.817 32.4201C111.065 21.6883 124.243 -0.369573 140.501 2.11338C145.164 2.20052 149.946 8.85147 143.588 10.737C136.895 12.6741 128.968 20.2909 137.185 25.9119C139.592 28.1943 142.624 29.7755 144.551 32.5944C147.175 37.7933 146.82 45.0511 141.669 48.5923C137.681 51.3504 133.157 51.4029 128.635 50.8317C124.264 50.0737 116.051 49.1341 117.911 42.8432C120.825 38.7729 125.174 41.3745 128.776 42.2049C131.782 42.8758 134.197 40.2637 133.136 37.5456C131.509 34.881 128.329 34.0421 125.818 32.418L125.817 32.4201Z" fill="#279546"/>
<path d="M14.2446 50.8044C11.0123 48.7362 9.72901 45.4039 8.46364 42.0338C6.17797 36.7109 3.68509 31.4458 1.63819 26.02C-1.68985 18.4988 3.78501 10.3496 9.98776 19.2851C13.1033 24.988 14.9746 31.0615 16.9668 37.2694C18.7644 31.744 20.9449 26.7896 23.2768 21.5413C24.0268 19.9371 25.3058 18.5177 26.5596 17.2221C28.8085 14.8977 32.7434 15.6284 34.0793 18.1806C35.6728 20.8767 35.007 24.167 33.9783 26.904C31.699 32.293 21.2362 54.0233 14.2456 50.8055L14.2446 50.8044Z" fill="#3C53A4"/>
<path d="M151.72 50.4674C144.184 48.4412 153.35 37.596 156.369 45.5928C155.856 48.1031 154.475 50.227 151.72 50.4674Z" fill="#040404"/>
<path d="M46.6626 20.2636C46.6394 20.0211 46.6173 19.7775 46.5942 19.5339C45.7022 18.6457 45.109 17.3334 43.973 16.7644C40.9647 14.3003 37.3158 17.1213 36.914 20.4631L36.9551 20.546C35.7402 28.4505 35.1774 36.7739 36.0536 44.838C36.3071 47.2684 37.5231 49.3314 39.8666 50.4968C43.0737 51.0448 45.2163 49.7976 45.9726 46.6606C47.8017 38.1072 49.897 28.7277 46.6626 20.2636ZM44.703 18.4274C45.0322 18.8599 45.3783 19.2725 45.779 19.6316C45.3783 19.2725 45.0322 18.8599 44.703 18.4274Z" fill="#E31E26"/>
<path d="M38.5582 13.7901C38.6423 13.8531 38.7254 13.9171 38.8096 13.9801C43.0916 14.0683 46.2188 12.273 47.6219 8.58269C48.1226 6.32861 48.9652 2.58791 46.1599 1.4866C38.0365 -2.7318 31.1384 9.93388 38.5592 13.789L38.5582 13.7901Z" fill="#E31E26"/>
<path d="M115.1 41.2978C114.688 39.8941 113.512 39.155 112.314 38.459L112.313 38.4579C108.282 37.5928 103.474 39.1739 99.9976 36.4527V36.4484C99.3717 36.0915 98.7627 34.4043 99.2771 33.1371C100.359 31.4259 102.361 31.597 104.004 31.9592C109.814 33.5445 112.299 29.1928 110.666 24.0032C108.968 18.3276 101.056 23.4689 98.8774 19.6095C98.5008 18.5072 98.9436 17.6001 99.6799 16.6121C101.536 14.4924 104.061 15.8373 106.314 15.9801C111.091 16.5659 113.569 10.7927 110.448 7.39949C105.481 4.74226 94.0652 3.84987 89.0342 6.55435C86.7348 8.46617 87.753 11.9727 87.1619 14.6373C87.1724 20.124 86.8285 25.5938 86.596 31.0741C86.9463 35.7251 84.2136 46.9209 87.753 49.6937C91.9099 52.437 101.942 50.2984 107.329 50.69C113.249 50.775 115.849 46.9314 115.1 41.2968V41.2978Z" fill="#FCD504"/>
<path d="M85.9187 57.0722H88.1181C88.6693 57.0722 89.1594 57.1814 89.5865 57.3997C90.0135 57.6181 90.3459 57.9247 90.5815 58.3184C90.8172 58.7131 90.936 59.1656 90.936 59.6769C90.936 60.1882 90.8182 60.6407 90.5815 61.0344C90.3459 61.4291 90.0135 61.7357 89.5865 61.9541C89.1584 62.1725 88.6693 62.2816 88.1181 62.2816H85.9187V57.0722ZM88.0729 61.6339C88.4947 61.6339 88.867 61.552 89.1878 61.3882C89.5087 61.2244 89.7558 60.9956 89.9294 60.6995C90.1029 60.4045 90.1903 60.0633 90.1903 59.6769C90.1903 59.2906 90.1029 58.9483 89.9294 58.6533C89.7558 58.3583 89.5087 58.1283 89.1878 57.9646C88.867 57.8008 88.4957 57.7189 88.0729 57.7189H86.6634V61.6339H88.0729Z" fill="black"/>
<path d="M93.978 57.0722H94.7238V62.2816H93.978V57.0722Z" fill="black"/>
<path d="M100.189 60.4801V62.2806H99.4508V60.4654L97.3787 57.0722H98.176L99.8463 59.8176L101.524 57.0722H102.262L100.19 60.4801H100.189Z" fill="black"/>
<path d="M109.207 62.1588C108.842 62.037 108.555 61.8795 108.345 61.6864L108.621 61.1058C108.82 61.2843 109.074 61.4302 109.385 61.5415C109.696 61.6528 110.016 61.7084 110.344 61.7084C110.776 61.7084 111.099 61.6349 111.312 61.489C111.526 61.342 111.633 61.1478 111.633 60.9053C111.633 60.7268 111.574 60.5809 111.458 60.4696C111.341 60.3583 111.197 60.2722 111.025 60.2134C110.854 60.1536 110.612 60.0864 110.298 60.0129C109.906 59.9184 109.588 59.8239 109.348 59.7305C109.107 59.636 108.901 59.4911 108.729 59.2948C108.558 59.0995 108.471 58.8349 108.471 58.5021C108.471 58.2239 108.545 57.974 108.691 57.7504C108.837 57.5268 109.06 57.3483 109.358 57.215C109.657 57.0806 110.027 57.0144 110.469 57.0144C110.777 57.0144 111.08 57.0543 111.379 57.1331C111.677 57.2129 111.933 57.3262 112.147 57.4753L111.9 58.0706C111.682 57.932 111.448 57.826 111.2 57.7546C110.952 57.6832 110.708 57.6465 110.469 57.6465C110.047 57.6465 109.729 57.7231 109.518 57.8774C109.307 58.0307 109.201 58.2291 109.201 58.4727C109.201 58.6512 109.261 58.7961 109.38 58.9084C109.499 59.0207 109.647 59.1068 109.824 59.1688C110.001 59.2307 110.241 59.2969 110.544 59.3662C110.936 59.4606 111.251 59.5551 111.49 59.6486C111.729 59.7431 111.934 59.8869 112.106 60.0801C112.277 60.2743 112.363 60.5336 112.363 60.8612C112.363 61.1341 112.289 61.383 112.139 61.6087C111.99 61.8344 111.764 62.0129 111.461 62.1441C111.158 62.2754 110.784 62.3415 110.343 62.3415C109.949 62.3415 109.571 62.2806 109.206 62.1588H109.207Z" fill="black"/>
<path d="M116.315 57.7189H114.526V57.0711H118.843V57.7189H117.053V62.2806H116.315V57.7189Z" fill="black"/>
<path d="M121.996 61.7452C121.609 61.3483 121.414 60.7782 121.414 60.0339V57.0722H122.16V60.0045C122.16 61.1205 122.649 61.679 123.628 61.679C124.106 61.679 124.471 61.5415 124.724 61.2664C124.978 60.9913 125.105 60.5704 125.105 60.0045V57.0722H125.828V60.0339C125.828 60.7835 125.634 61.3546 125.246 61.7494C124.858 62.1441 124.316 62.3415 123.621 62.3415C122.926 62.3415 122.384 62.1431 121.996 61.7462V61.7452Z" fill="black"/>
<path d="M129.258 57.0722H131.457C132.009 57.0722 132.499 57.1814 132.926 57.3997C133.353 57.6181 133.685 57.9247 133.921 58.3184C134.157 58.7131 134.275 59.1656 134.275 59.6769C134.275 60.1882 134.158 60.6407 133.921 61.0344C133.685 61.4291 133.353 61.7357 132.926 61.9541C132.498 62.1725 132.009 62.2816 131.457 62.2816H129.258V57.0722ZM131.412 61.6339C131.834 61.6339 132.206 61.552 132.527 61.3882C132.848 61.2244 133.095 60.9956 133.269 60.6995C133.442 60.4045 133.53 60.0633 133.53 59.6769C133.53 59.2906 133.442 58.9483 133.269 58.6533C133.095 58.3583 132.848 58.1283 132.527 57.9646C132.206 57.8008 131.835 57.7189 131.412 57.7189H130.003V61.6339H131.412Z" fill="black"/>
<path d="M137.318 57.0722H138.064V62.2816H137.318V57.0722Z" fill="black"/>
<path d="M142.463 61.995C142.04 61.7641 141.709 61.4459 141.468 61.0386C141.227 60.6312 141.106 60.1777 141.106 59.6769C141.106 59.1761 141.226 58.7215 141.468 58.3152C141.709 57.9089 142.041 57.5898 142.463 57.3588C142.885 57.1278 143.36 57.0123 143.887 57.0123C144.414 57.0123 144.881 57.1278 145.304 57.3588C145.727 57.5898 146.057 57.9068 146.296 58.311C146.535 58.7152 146.653 59.1709 146.653 59.6769C146.653 60.1829 146.535 60.6386 146.296 61.0428C146.057 61.447 145.727 61.7651 145.304 61.995C144.881 62.226 144.409 62.3415 143.887 62.3415C143.365 62.3415 142.886 62.226 142.463 61.995ZM144.919 61.4186C145.225 61.2454 145.466 61.006 145.643 60.7005C145.818 60.3961 145.908 60.0549 145.908 59.678C145.908 59.301 145.819 58.9598 145.643 58.6543C145.466 58.3488 145.225 58.1094 144.919 57.9362C144.614 57.7619 144.269 57.6759 143.886 57.6759C143.503 57.6759 143.156 57.763 142.846 57.9362C142.534 58.1094 142.291 58.3488 142.115 58.6543C141.938 58.9588 141.85 59.301 141.85 59.678C141.85 60.0549 141.938 60.3961 142.115 60.7005C142.29 61.006 142.534 61.2454 142.846 61.4186C143.156 61.5919 143.503 61.679 143.886 61.679C144.269 61.679 144.613 61.5919 144.919 61.4186Z" fill="black"/>
</svg>
