<svg width="157" height="63" viewBox="0 0 157 63" fill="none" xmlns="http://www.w3.org/2000/svg">
<path d="M57.2411 49.2845C49.9802 44.4582 52.6224 34.5285 51.9145 27.1563C52.1301 21.024 50.769 14.6407 52.4615 8.6722C54.9312 1.77873 68.2444 4.76772 74.1706 4.41497C87.3229 5.59083 86.3236 17.7106 78.6125 25.3421C89.9462 39.7138 71.7734 54.1118 57.2411 49.2845ZM64.7029 20.6177C74.4788 20.4707 72.5528 13.8953 63.9066 15.1132C61.9081 15.4281 61.1245 17.0596 61.7304 19.8492C62.109 21.572 63.7173 20.5862 64.7029 20.6177ZM64.2117 39.9889C65.8652 39.3401 67.6102 38.8529 69.1417 37.9878C74.2042 33.3243 67.7069 30.3479 63.0746 31.9007C60.1231 33.0356 61.8155 37.8408 61.4179 40.5033C62.5613 40.2923 63.386 40.1401 64.2117 39.9878V39.9889Z" fill="white"/>
<path d="M125.817 32.4414C111.065 21.7095 124.243 -0.348303 140.501 2.13465C145.164 2.22179 149.946 8.87274 143.588 10.7583C136.895 12.6953 128.968 20.3122 137.185 25.9332C139.592 28.2156 142.624 29.7967 144.551 32.6156C147.175 37.8146 146.82 45.0724 141.669 48.6136C137.681 51.3716 133.157 51.4241 128.635 50.853C124.264 50.095 116.051 49.1553 117.911 42.8645C120.825 38.7941 125.174 41.3957 128.776 42.2262C131.782 42.897 134.197 40.285 133.136 37.5668C131.509 34.9023 128.329 34.0634 125.818 32.4393L125.817 32.4414Z" fill="#279546"/>
<path d="M14.2446 50.8257C11.0123 48.7574 9.72901 45.4251 8.46364 42.055C6.17797 36.7322 3.68509 31.4671 1.63819 26.0413C-1.68985 18.52 3.78501 10.3709 9.98776 19.3064C13.1033 25.0093 14.9746 31.0828 16.9668 37.2907C18.7644 31.7652 20.9449 26.8109 23.2768 21.5626C24.0268 19.9584 25.3058 18.5389 26.5596 17.2434C28.8085 14.919 32.7434 15.6497 34.0793 18.2019C35.6728 20.898 35.007 24.1883 33.9783 26.9253C31.699 32.3143 21.2362 54.0446 14.2456 50.8267L14.2446 50.8257Z" fill="#3C53A4"/>
<path d="M151.72 50.4887C144.184 48.4624 153.35 37.6172 156.369 45.6141C155.856 48.1244 154.475 50.2483 151.72 50.4887Z" fill="white"/>
<path d="M46.6626 20.2849C46.6394 20.0423 46.6173 19.7988 46.5942 19.5552C45.7022 18.667 45.109 17.3547 43.973 16.7856C40.9647 14.3216 37.3158 17.1426 36.914 20.4843L36.9551 20.5673C35.7402 28.4718 35.1774 36.7952 36.0536 44.8592C36.3071 47.2897 37.5231 49.3527 39.8666 50.5181C43.0737 51.0661 45.2163 49.8189 45.9726 46.6818C47.8017 38.1285 49.897 28.7489 46.6626 20.2849ZM44.703 18.4486C45.0322 18.8812 45.3783 19.2938 45.779 19.6528C45.3783 19.2938 45.0322 18.8812 44.703 18.4486Z" fill="#E31E26"/>
<path d="M38.5582 13.8113C38.6423 13.8743 38.7254 13.9384 38.8096 14.0014C43.0916 14.0896 46.2188 12.2943 47.6219 8.60396C48.1226 6.34988 48.9652 2.60918 46.1599 1.50787C38.0365 -2.71053 31.1384 9.95515 38.5592 13.8103L38.5582 13.8113Z" fill="#E31E26"/>
<path d="M115.1 41.3191C114.688 39.9154 113.512 39.1763 112.314 38.4802L112.313 38.4792C108.282 37.6141 103.474 39.1952 99.9976 36.4739V36.4697C99.3717 36.1128 98.7627 34.4256 99.2771 33.1584C100.359 31.4471 102.361 31.6183 104.004 31.9805C109.814 33.5658 112.299 29.214 110.666 24.0245C108.968 18.3489 101.056 23.4901 98.8774 19.6308C98.5008 18.5284 98.9436 17.6213 99.6799 16.6334C101.536 14.5137 104.061 15.8586 106.314 16.0014C111.091 16.5872 113.569 10.814 110.448 7.42077C105.481 4.76354 94.0652 3.87114 89.0342 6.57562C86.7348 8.48744 87.753 11.994 87.1619 14.6586C87.1724 20.1452 86.8285 25.6151 86.596 31.0954C86.9463 35.7464 84.2136 46.9422 87.753 49.7149C91.9099 52.4582 101.942 50.3197 107.329 50.7113C113.249 50.7963 115.849 46.9527 115.1 41.318V41.3191Z" fill="#FCD504"/>
</svg>
