<svg width="157" height="63" viewBox="0 0 157 63" fill="none" xmlns="http://www.w3.org/2000/svg">
<path d="M57.2411 49.6036C49.9802 44.7773 52.6224 34.8476 51.9145 27.4754C52.1301 21.3431 50.769 14.9599 52.4615 8.99136C54.9312 2.09789 68.2444 5.08688 74.1706 4.73412C87.3229 5.90998 86.3236 18.0297 78.6125 25.6613C89.9462 40.033 71.7734 54.4309 57.2411 49.6036ZM64.7029 20.9368C74.4788 20.7898 72.5528 14.2145 63.9066 15.4323C61.9081 15.7473 61.1245 17.3788 61.7304 20.1683C62.109 21.8912 63.7173 20.9053 64.7029 20.9368ZM64.2117 40.308C65.8652 39.6592 67.6102 39.1721 69.1417 38.307C74.2042 33.6434 67.7069 30.667 63.0746 32.2198C60.1231 33.3547 61.8155 38.16 61.4179 40.8225C62.5613 40.6115 63.386 40.4592 64.2117 40.307V40.308Z" fill="#010101"/>
<path d="M125.817 32.7605C111.065 22.0287 124.243 -0.0291498 140.501 2.4538C145.164 2.54094 149.946 9.19189 143.588 11.0775C136.895 13.0145 128.968 20.6313 137.185 26.2523C139.592 28.5348 142.624 30.1159 144.551 32.9348C147.175 38.1338 146.82 45.3915 141.669 48.9328C137.681 51.6908 133.157 51.7433 128.635 51.1721C124.264 50.4141 116.051 49.4745 117.911 43.1837C120.825 39.1133 125.174 41.7149 128.776 42.5453C131.782 43.2162 134.197 40.6041 133.136 37.886C131.509 35.2214 128.329 34.3826 125.818 32.7584L125.817 32.7605Z" fill="#279546"/>
<path d="M14.2446 51.1448C11.0123 49.0766 9.72901 45.7443 8.46364 42.3742C6.17797 37.0513 3.68509 31.7862 1.63819 26.3605C-1.68985 18.8392 3.78501 10.6901 9.98776 19.6255C13.1033 25.3284 14.9746 31.402 16.9668 37.6099C18.7644 32.0844 20.9449 27.13 23.2768 21.8817C24.0268 20.2775 25.3058 18.8581 26.5596 17.5625C28.8085 15.2381 32.7434 15.9688 34.0793 18.5211C35.6728 21.2171 35.007 24.5074 33.9783 27.2445C31.699 32.6335 21.2362 54.3638 14.2456 51.1459L14.2446 51.1448Z" fill="#3C53A4"/>
<path d="M151.72 50.8078C144.184 48.7816 153.35 37.9364 156.369 45.9333C155.856 48.4435 154.475 50.5674 151.72 50.8078Z" fill="#040404"/>
<path d="M46.6626 20.604C46.6394 20.3615 46.6173 20.1179 46.5942 19.8743C45.7022 18.9862 45.109 17.6738 43.973 17.1048C40.9647 14.6407 37.3158 17.4617 36.914 20.8035L36.9551 20.8864C35.7402 28.7909 35.1774 37.1143 36.0536 45.1784C36.3071 47.6089 37.5231 49.6719 39.8666 50.8372C43.0737 51.3853 45.2163 50.138 45.9726 47.001C47.8017 38.4477 49.897 29.0681 46.6626 20.604ZM44.703 18.7678C45.0322 19.2003 45.3783 19.6129 45.779 19.972C45.3783 19.6129 45.0322 19.2003 44.703 18.7678Z" fill="#E31E26"/>
<path d="M38.5582 14.1305C38.6423 14.1935 38.7254 14.2575 38.8096 14.3205C43.0916 14.4087 46.2188 12.6134 47.6219 8.92311C48.1226 6.66904 48.9652 2.92834 46.1599 1.82702C38.0365 -2.39137 31.1384 10.2743 38.5592 14.1294L38.5582 14.1305Z" fill="#E31E26"/>
<path d="M115.1 41.6382C114.688 40.2346 113.512 39.4954 112.314 38.7994L112.313 38.7983C108.282 37.9332 103.474 39.5143 99.9976 36.7931V36.7889C99.3717 36.4319 98.7627 34.7448 99.2771 33.4776C100.359 31.7663 102.361 31.9374 104.004 32.2996C109.814 33.8849 112.299 29.5332 110.666 24.3437C108.968 18.6681 101.056 23.8093 98.8774 19.9499C98.5008 18.8476 98.9436 17.9405 99.6799 16.9526C101.536 14.8329 104.061 16.1778 106.314 16.3205C111.091 16.9064 113.569 11.1331 110.448 7.73992C105.481 5.08269 94.0652 4.1903 89.0342 6.89477C86.7348 8.80659 87.753 12.3132 87.1619 14.9777C87.1724 20.4644 86.8285 25.9342 86.596 31.4146C86.9463 36.0655 84.2136 47.2614 87.753 50.0341C91.9099 52.7774 101.942 50.6388 107.329 51.0304C113.249 51.1154 115.849 47.2719 115.1 41.6372V41.6382Z" fill="#FCD504"/>
</svg>
